<svg xmlns="http://www.w3.org/2000/svg" viewBox="0 0 178.89 50.58"><defs><style>.cls-1{isolation:isolate;}.cls-2{fill:#636566;}.cls-3{fill:#70cff6;}.cls-3,.cls-4{mix-blend-mode:multiply;}.cls-4{fill:#b3e3f9;}</style></defs><title>Care</title><g class="cls-1"><g id="Layer_1" data-name="Layer 1"><g id="Care"><path class="cls-2" d="M44.5,39.37c-4.28,6.5-11.68,9.87-20.48,9.87C9.62,49.24,0,38.88,0,26.7,0,13.87,10,3.35,24.43,3.35c8.39,0,16,3.45,20.07,10.2L40,16.34c-3.87-5.1-9.21-7.57-15.79-7.57-11.1,0-18.42,8.14-18.42,17.52,0,9.54,7.24,17.85,18.51,17.85A19.35,19.35,0,0,0,40,36.49Z"/><path class="cls-2" d="M115.15,10.83c3.29-4.77,6.83-7.48,11.27-7.48a8.84,8.84,0,0,1,5,1.48l-3,4.77a6.69,6.69,0,0,0-3-.82c-4.11,0-7.81,3.54-9.46,9.54-.74,2.8-.9,7.32-.9,13.24V48.17h-5.92V4.5h5.92Z"/><path class="cls-2" d="M139.58,26.79c.25,10,7.07,17.35,16.45,17.35,9.13,0,13.49-5.18,16.7-10.44l4.69,2.47C173,44.88,166.14,49.24,156.6,49.24c-14.48,0-22.78-11.1-22.78-22.78,0-11.93,8.8-23.11,22.45-23.11,12.42,0,22.45,9,22.62,23.44Zm33.15-4.93c-2.3-9-8.8-13.08-16.37-13.08-7.81,0-13.65,4.19-16.2,13.08Z"/><path class="cls-3" d="M81.42,42.58S65,19,85.57,3.64c16.11-12.06,24.7,9,15.91,16.9C85.94,34.51,81.42,42.58,81.42,42.58Z"/><path class="cls-4" d="M85.28,50.58S93.53,25.94,77,13.82C58.89.58,50.79,13,50.79,13S45,23.61,54.35,30.62C61.42,35.91,77,44,85.28,50.58Z"/></g></g></g></svg>