<?xml version="1.0" encoding="UTF-8" standalone="no"?>
<!-- Created with Inkscape (http://www.inkscape.org/) -->

<svg
   xmlns:dc="http://purl.org/dc/elements/1.1/"
   xmlns:cc="http://creativecommons.org/ns#"
   xmlns:rdf="http://www.w3.org/1999/02/22-rdf-syntax-ns#"
   xmlns:svg="http://www.w3.org/2000/svg"
   xmlns="http://www.w3.org/2000/svg"
   xmlns:sodipodi="http://sodipodi.sourceforge.net/DTD/sodipodi-0.dtd"
   xmlns:inkscape="http://www.inkscape.org/namespaces/inkscape"
   id="svg2"
   version="1.1"
   inkscape:version="0.91 r13725"
   xml:space="preserve"
   width="641"
   height="185.14999"
   viewBox="0 0 641 185.14999"
   sodipodi:docname="Compassionate_Care_Logo_FINAL_2017_11_07_16_14_30_UTC.svg"><metadata
     id="metadata8"><rdf:RDF><cc:Work
         rdf:about=""><dc:format>image/svg+xml</dc:format><dc:type
           rdf:resource="http://purl.org/dc/dcmitype/StillImage" /><dc:title></dc:title></cc:Work></rdf:RDF></metadata><defs
     id="defs6" /><sodipodi:namedview
     pagecolor="#ffffff"
     bordercolor="#666666"
     borderopacity="1"
     objecttolerance="10"
     gridtolerance="10"
     guidetolerance="10"
     inkscape:pageopacity="0"
     inkscape:pageshadow="2"
     inkscape:window-width="1473"
     inkscape:window-height="804"
     id="namedview4"
     showgrid="false"
     inkscape:zoom="1.1513504"
     inkscape:cx="320.5"
     inkscape:cy="92.574997"
     inkscape:window-x="0"
     inkscape:window-y="27"
     inkscape:window-maximized="0"
     inkscape:current-layer="g10" /><g
     id="g10"
     inkscape:groupmode="layer"
     inkscape:label="ink_ext_XXXXXX"
     transform="matrix(1.25,0,0,-1.25,0,185.15)"><g
       id="g12"
       transform="scale(0.1,0.1)"><g
         id="g14"
         transform="scale(10,10)"><g
           transform="matrix(1,0,0,-1,68.8887,105.17)"
           style="font-variant:normal;font-weight:bold;font-size:50px;font-family:'Century Gothic';-inkscape-font-specification:CenturyGothic-Bold;writing-mode:lr-tb;fill:#80d6f7;fill-opacity:1;fill-rule:nonzero;stroke:none"
           id="text16"><path
             d="m 29.370117,-21.191406 -5.541992,3.051758 q -1.5625,-1.635743 -3.100586,-2.270508 -1.513672,-0.634766 -3.564453,-0.634766 -3.735352,0 -6.054688,2.246094 -2.2949214,2.22168 -2.2949214,5.71289 0,3.3935552 2.2216794,5.5419927 2.22168,2.1484375 5.834961,2.1484375 4.467774,0 6.958008,-3.0517578 l 5.249023,3.5888672 q -4.272461,5.54199215 -12.060546,5.54199215 -7.006836,0 -10.9863286,-4.15039065 -3.9550781,-4.1503906 -3.9550781,-9.7167971 0,-3.857422 1.9287109,-7.104492 1.928711,-3.24707 5.3710938,-5.102539 3.466797,-1.855469 7.739258,-1.855469 3.955078,0 7.104492,1.586914 3.149414,1.5625 5.151367,4.467774 z"
             style=""
             id="path3384" /><path
             d="m 47.844727,-27.246094 q 3.759765,0 7.055664,1.879883 3.320312,1.879883 5.175781,5.102539 1.855469,3.222656 1.855469,6.958008 0,3.7597656 -1.879883,7.0312499 -1.855469,3.2714844 -5.078125,5.1269532 -3.222656,1.83105465 -7.104492,1.83105465 -5.712891,0 -9.765625,-4.05273435 -4.028321,-4.0771485 -4.028321,-9.8876954 0,-6.225586 4.56543,-10.375976 4.003906,-3.613282 9.204102,-3.613282 z m 0.09766,6.274414 q -3.100586,0 -5.175781,2.172852 -2.050782,2.148437 -2.050782,5.517578 0,3.4667969 2.026367,5.6152344 2.050782,2.1484375 5.175782,2.1484375 3.125,0 5.200195,-2.1728516 2.075195,-2.1728516 2.075195,-5.5908203 0,-3.417969 -2.050781,-5.541992 -2.026367,-2.148438 -5.200195,-2.148438 z"
             style=""
             id="path3386" /><path
             d="m 67.320312,-26.5625 6.689454,0 0,3.051758 q 1.708984,-1.879883 3.784179,-2.807617 2.09961,-0.927735 4.56543,-0.927735 2.490234,0 4.492187,1.220703 2.001954,1.220704 3.222657,3.564454 1.586914,-2.34375 3.881836,-3.564454 2.319336,-1.220703 5.053711,-1.220703 2.832034,0 4.980464,1.31836 2.14844,1.318359 3.07618,3.442382 0.95214,2.124024 0.95214,6.90918 l 0,15.576172 -6.71386,0 0,-13.476563 q 0,-4.516601 -1.12305,-6.103515 -1.123046,-1.611328 -3.36914,-1.611328 -1.708984,0 -3.076172,0.976562 -1.342773,0.976563 -2.001953,2.709961 -0.65918,1.708985 -0.65918,5.517578 l 0,11.987305 -6.713867,0 0,-12.866211 q 0,-3.564453 -0.537109,-5.151367 -0.512696,-1.611328 -1.5625,-2.392578 -1.049805,-0.78125 -2.539063,-0.78125 -1.660156,0 -3.027344,1.000976 -1.342773,0.976563 -2.026367,2.758789 -0.659179,1.782227 -0.659179,5.615235 l 0,11.816406 -6.689454,0 0,-26.5625 z"
             style=""
             id="path3388" /><path
             d="m 120.98535,-26.5625 0,2.929688 q 1.80664,-1.806641 3.90625,-2.709961 2.09961,-0.903321 4.49219,-0.903321 5.20019,0 8.83789,3.930664 3.63769,3.930664 3.63769,10.083008 0,5.9326173 -3.75976,9.9365236 -3.75977,3.97949215 -8.91113,3.97949215 -2.29493,0 -4.27246,-0.80566406 -1.97754,-0.83007813 -3.93067,-2.68554689 l 0,12.5244141 -6.61621,0 0,-36.2792969 6.61621,0 z m 7.00684,5.46875 q -3.14942,0 -5.22461,2.148438 -2.0752,2.148437 -2.0752,5.615234 0,3.5400389 2.0752,5.7373046 2.07519,2.1728515 5.22461,2.1728515 3.05176,0 5.12695,-2.2216797 2.09961,-2.2216797 2.09961,-5.6640624 0,-3.417969 -2.05078,-5.59082 -2.05078,-2.197266 -5.17578,-2.197266 z"
             style=""
             id="path3390" /><path
             d="m 166.99805,-26.5625 6.64062,0 0,26.5625 -6.64062,0 0,-2.8076172 q -1.95313,1.85546876 -3.93067,2.68554689 -1.95312,0.80566406 -4.24804,0.80566406 -5.15137,0 -8.91114,-3.97949215 -3.75976,-4.0039063 -3.75976,-9.9365236 0,-6.152344 3.63769,-10.083008 3.6377,-3.930664 8.83789,-3.930664 2.39258,0 4.49219,0.903321 2.09961,0.90332 3.88184,2.709961 l 0,-2.929688 z m -7.00684,5.46875 q -3.10059,0 -5.15137,2.197266 -2.05078,2.172851 -2.05078,5.59082 0,3.4423827 2.0752,5.6640624 2.09961,2.2216797 5.15136,2.2216797 3.14942,0 5.22461,-2.1728515 2.0752,-2.1972657 2.0752,-5.7373046 0,-3.466797 -2.0752,-5.615234 -2.07519,-2.148438 -5.24902,-2.148438 z"
             style=""
             id="path3392" /><path
             d="m 196.62891,-22.851562 -4.12598,4.125976 q -2.51465,-2.490234 -4.56543,-2.490234 -1.12305,0 -1.75781,0.488281 -0.63477,0.463867 -0.63477,1.171875 0,0.537109 0.39063,1.000977 0.41504,0.439453 2.00195,1.220703 l 2.44141,1.220703 q 3.85742,1.904297 5.29785,3.881836 1.44043,1.977539 1.44043,4.6386716 0,3.540039 -2.61231,5.9082031 -2.58789,2.36816405 -6.95801,2.36816405 -5.81054,0 -9.27734,-4.54101565 l 4.10156,-4.4677734 q 1.17188,1.3671875 2.73438,2.2216797 1.58691,0.8300781 2.80762,0.8300781 1.31836,0 2.12402,-0.6347656 0.80566,-0.6347656 0.80566,-1.4648438 0,-1.5380859 -2.90527,-3.0029301 l -2.24609,-1.123046 q -6.44532,-3.247071 -6.44532,-8.129883 0,-3.149414 2.417,-5.371094 2.4414,-2.246094 6.22558,-2.246094 2.58789,0 4.8584,1.147461 2.29492,1.123047 3.88184,3.247071 z"
             style=""
             id="path3394" /><path
             d="m 218.62891,-22.851562 -4.12598,4.125976 q -2.51465,-2.490234 -4.56543,-2.490234 -1.12305,0 -1.75781,0.488281 -0.63477,0.463867 -0.63477,1.171875 0,0.537109 0.39063,1.000977 0.41504,0.439453 2.00195,1.220703 l 2.44141,1.220703 q 3.85742,1.904297 5.29785,3.881836 1.44043,1.977539 1.44043,4.6386716 0,3.540039 -2.61231,5.9082031 -2.58789,2.36816405 -6.95801,2.36816405 -5.81054,0 -9.27734,-4.54101565 l 4.10156,-4.4677734 q 1.17188,1.3671875 2.73438,2.2216797 1.58691,0.8300781 2.80762,0.8300781 1.31836,0 2.12402,-0.6347656 0.80566,-0.6347656 0.80566,-1.4648438 0,-1.5380859 -2.90527,-3.0029301 l -2.24609,-1.123046 q -6.44532,-3.247071 -6.44532,-8.129883 0,-3.149414 2.417,-5.371094 2.4414,-2.246094 6.22558,-2.246094 2.58789,0 4.8584,1.147461 2.29492,1.123047 3.88184,3.247071 z"
             style=""
             id="path3396" /><path
             d="m 226.98145,-37.5 q 1.75781,0 3.00292,1.269531 1.26954,1.269532 1.26954,3.076172 0,1.782227 -1.24512,3.051758 -1.24512,1.245117 -2.97852,1.245117 -1.78222,0 -3.05175,-1.269531 -1.24512,-1.293945 -1.24512,-3.125 0,-1.757813 1.24512,-3.00293 Q 225.22363,-37.5 226.98145,-37.5 Z m -3.34473,10.9375 6.68945,0 0,26.5625 -6.68945,0 0,-26.5625 z"
             style=""
             id="path3398" /><path
             d="m 248.84473,-27.246094 q 3.75976,0 7.05566,1.879883 3.32031,1.879883 5.17578,5.102539 1.85547,3.222656 1.85547,6.958008 0,3.7597656 -1.87988,7.0312499 -1.85547,3.2714844 -5.07813,5.1269532 -3.22265,1.83105465 -7.10449,1.83105465 -5.71289,0 -9.76562,-4.05273435 -4.02832,-4.0771485 -4.02832,-9.8876954 0,-6.225586 4.56542,-10.375976 4.00391,-3.613282 9.20411,-3.613282 z m 0.0977,6.274414 q -3.10058,0 -5.17578,2.172852 -2.05078,2.148437 -2.05078,5.517578 0,3.4667969 2.02637,5.6152344 2.05078,2.1484375 5.17578,2.1484375 3.125,0 5.20019,-2.1728516 2.0752,-2.1728516 2.0752,-5.5908203 0,-3.417969 -2.05078,-5.541992 -2.02637,-2.148438 -5.2002,-2.148438 z"
             style=""
             id="path3400" /><path
             d="m 268.36914,-26.5625 6.64063,0 0,2.709961 q 2.2705,-1.904297 4.10156,-2.636719 1.85547,-0.756836 3.78418,-0.756836 3.95508,0 6.71386,2.758789 2.31934,2.34375 2.31934,6.933594 l 0,17.553711 -6.5918,0 0,-11.645508 q 0,-4.760742 -0.43945,-6.323242 -0.41504,-1.5625 -1.48926,-2.368164 -1.0498,-0.830078 -2.6123,-0.830078 -2.02637,0 -3.49121,1.367187 -1.44043,1.342774 -2.00196,3.735352 -0.29296,1.245117 -0.29296,5.395508 l 0,10.668945 -6.64063,0 0,-26.5625 z"
             style=""
             id="path3402" /><path
             d="m 317.99805,-26.5625 6.64062,0 0,26.5625 -6.64062,0 0,-2.8076172 q -1.95313,1.85546876 -3.93067,2.68554689 -1.95312,0.80566406 -4.24804,0.80566406 -5.15137,0 -8.91114,-3.97949215 -3.75976,-4.0039063 -3.75976,-9.9365236 0,-6.152344 3.63769,-10.083008 3.6377,-3.930664 8.83789,-3.930664 2.39258,0 4.49219,0.903321 2.09961,0.90332 3.88184,2.709961 l 0,-2.929688 z m -7.00684,5.46875 q -3.10059,0 -5.15137,2.197266 -2.05078,2.172851 -2.05078,5.59082 0,3.4423827 2.0752,5.6640624 2.09961,2.2216797 5.15136,2.2216797 3.14942,0 5.22461,-2.1728515 2.0752,-2.1972657 2.0752,-5.7373046 0,-3.466797 -2.0752,-5.615234 -2.07519,-2.148438 -5.24902,-2.148438 z"
             style=""
             id="path3404" /><path
             d="m 332.1748,-36.352539 6.64063,0 0,9.790039 3.95508,0 0,5.737305 -3.95508,0 0,20.825195 -6.64063,0 0,-20.825195 -3.41796,0 0,-5.737305 3.41796,0 0,-9.790039 z"
             style=""
             id="path3406" /><path
             d="m 372.98047,-11.352539 -21.41113,0 q 0.46386,2.8320312 2.46582,4.5166015 2.02636,1.6601563 5.15136,1.6601563 3.73535,0 6.4209,-2.6123047 l 5.61524,2.6367187 q -2.09961,2.9785156 -5.0293,4.41894533 -2.92969,1.41601562 -6.95801,1.41601562 -6.25,0 -10.18066,-3.93066405 -3.93067,-3.9550781 -3.93067,-9.8876957 0,-6.079101 3.90625,-10.083007 3.93067,-4.028321 9.83887,-4.028321 6.27441,0 10.20508,4.028321 3.93066,4.003906 3.93066,10.595703 l -0.0244,1.269531 z m -6.68945,-5.249023 q -0.65918,-2.22168 -2.61231,-3.613282 -1.92871,-1.391601 -4.49219,-1.391601 -2.7832,0 -4.88281,1.5625 -1.31836,0.976562 -2.44141,3.442383 l 14.42872,0 z"
             style=""
             id="path3408" /></g></g><g
         id="g20"
         transform="scale(10,10)"><g
           transform="matrix(0.99999,0,0,-1,94.2402,26.657)"
           style="font-variant:normal;font-weight:normal;font-size:21px;font-family:'Century Gothic';-inkscape-font-specification:CenturyGothic;writing-mode:lr-tb;fill:#5a5758;fill-opacity:1;fill-rule:nonzero;stroke:none"
           id="text22"><path
             d="m 1.8149414,-15.083496 1.5175781,0 0,6.3266601 7.6699215,0 0,-6.3266601 1.517579,0 0,15.083496 -1.517579,0 0,-7.2802734 -7.6699215,0 0,7.2802734 -1.5175781,0 0,-15.083496 z"
             style=""
             id="path3411" /><path
             d="m 28.092928,-15.462891 q 3.424805,0 5.731934,2.286621 2.307128,2.286622 2.307128,5.629395 0,3.3120117 -2.307128,5.6191406 -2.296875,2.30712893 -5.608887,2.30712893 -3.353028,0 -5.660156,-2.29687503 -2.307129,-2.296875 -2.307129,-5.5576172 0,-2.1738281 1.045898,-4.0297853 1.056152,-1.855957 2.871094,-2.901855 1.814941,-1.056153 3.927246,-1.056153 z m 0.07178,1.476563 q -1.671386,0 -3.168457,0.871582 -1.49707,0.871582 -2.33789,2.348144 -0.840821,1.4765629 -0.840821,3.2915043 0,2.6865235 1.855957,4.5424805 1.866211,1.8457031 4.491211,1.8457031 1.753418,0 3.240235,-0.8510742 1.49707,-0.8510742 2.327636,-2.3276367 0.840821,-1.4765625 0.840821,-3.28125 0,-1.7944336 -0.840821,-3.240234 -0.830566,-1.456055 -2.348144,-2.327637 -1.517578,-0.871582 -3.219727,-0.871582 z"
             style=""
             id="path3413" /><path
             d="m 43.195644,0 2.143067,-15.083496 0.246094,0 6.131835,12.3764647 6.070313,-12.3764647 0.246094,0 L 60.196621,0 58.709805,0 57.233242,-10.787109 51.901211,0 51.521816,0 46.118008,-10.869141 44.651699,0 43.195644,0 Z"
             style=""
             id="path3415" /><path
             d="m 67.915627,-15.083496 8.644042,0 0,1.486816 -7.136718,0 0,4.7167972 7.075195,0 0,1.4765625 -7.075195,0 0,5.9165039 7.075195,0 0,1.4868164 -8.582519,0 0,-15.083496 z"
             style=""
             id="path3417" /><path
             d="m 96.884125,-15.083496 1.517578,0 0,6.3266601 7.669917,0 0,-6.3266601 1.51758,0 0,15.083496 -1.51758,0 0,-7.2802734 -7.669917,0 0,7.2802734 -1.517578,0 0,-15.083496 z"
             style=""
             id="path3419" /><path
             d="m 115.98438,-15.083496 8.64404,0 0,1.486816 -7.13672,0 0,4.7167972 7.07519,0 0,1.4765625 -7.07519,0 0,5.9165039 7.07519,0 0,1.4868164 -8.58251,0 0,-15.083496 z"
             style=""
             id="path3421" /><path
             d="M 138.12029,-15.083496 145.15446,0 l -1.62011,0 -2.36865,-4.9628906 -6.50098,0 L 132.30632,0 l -1.68164,0 7.12646,-15.083496 0.36915,0 z m -0.18458,3.199219 -2.59423,5.4653317 5.15771,0 -2.56348,-5.4653317 z"
             style=""
             id="path3423" /><path
             d="m 152.21771,-15.083496 1.51758,0 0,13.6274413 5.79346,0 0,1.4560547 -7.31104,0 0,-15.083496 z"
             style=""
             id="path3425" /><path
             d="m 165.14555,-13.617188 0,-1.466308 8.27491,0 0,1.466308 -3.36329,0 0,13.617188 -1.53808,0 0,-13.617188 -3.37354,0 z"
             style=""
             id="path3427" /><path
             d="m 180.28825,-15.083496 1.51758,0 0,6.3266601 7.66992,0 0,-6.3266601 1.51758,0 0,15.083496 -1.51758,0 0,-7.2802734 -7.66992,0 0,7.2802734 -1.51758,0 0,-15.083496 z"
             style=""
             id="path3429" /><path
             d="M 218.55655,-15.083496 225.59073,0 l -1.62012,0 -2.36865,-4.9628906 -6.50098,0 L 212.74258,0 l -1.68164,0 7.12647,-15.083496 0.36914,0 z m -0.18457,3.199219 -2.59424,5.4653317 5.15772,0 -2.56348,-5.4653317 z"
             style=""
             id="path3431" /><path
             d="m 247.20325,-12.550781 -1.16895,1.107422 q -1.26123,-1.240723 -2.76855,-1.876465 -1.49707,-0.645996 -2.92237,-0.645996 -1.77392,0 -3.38379,0.871582 -1.5996,0.871582 -2.48144,2.368652 -0.88184,1.4868165 -0.88184,3.1479493 0,1.7021484 0.9126,3.2402344 0.9126,1.527832 2.52246,2.4096679 1.60987,0.8715821 3.52735,0.8715821 2.32763,0 3.9375,-1.3125 1.60986,-1.3125 1.90722,-3.4042969 l -4.80908,0 0,-1.4560547 6.50098,0 q -0.0205,3.496582 -2.08155,5.5576172 -2.05078,2.05078123 -5.49609,2.05078123 -4.18359,0 -6.62402,-2.85058593 -1.87647,-2.1943359 -1.87647,-5.0756836 0,-2.1430664 1.07666,-3.98877 1.07666,-1.845703 2.95313,-2.881347 1.87646,-1.045899 4.24511,-1.045899 1.91748,0 3.60938,0.697266 1.69189,0.687012 3.30176,2.214844 z"
             style=""
             id="path3433" /><path
             d="m 255.70253,-15.083496 8.64404,0 0,1.486816 -7.13672,0 0,4.7167972 7.0752,0 0,1.4765625 -7.0752,0 0,5.9165039 7.0752,0 0,1.4868164 -8.58252,0 0,-15.083496 z"
             style=""
             id="path3435" /><path
             d="m 271.6861,0 0,-15.083496 0.32812,0 10.02832,11.5458983 0,-11.5458983 1.48682,0 0,15.083496 -0.33838,0 -9.94629,-11.402344 0,11.402344 -1.55859,0 z"
             style=""
             id="path3437" /><path
             d="m 305.9837,-12.28418 -1.18945,0.912598 q -0.98437,-1.281738 -2.36865,-1.937988 -1.37403,-0.666504 -3.0249,-0.666504 -1.80469,0 -3.34278,0.871582 -1.53808,0.861328 -2.38916,2.327637 -0.84082,1.4560542 -0.84082,3.2812495 0,2.7583008 1.88672,4.6040039 1.89697,1.8457032 4.77832,1.8457032 3.16846,0 5.30127,-2.4814454 L 305.9837,-2.625 q -1.12793,1.4355469 -2.81982,2.22509766 -1.68164,0.77929687 -3.76318,0.77929687 -3.95801,0 -6.24463,-2.63525393 -1.91748,-2.2250976 -1.91748,-5.3730468 0,-3.3120118 2.31738,-5.5678708 2.32764,-2.266114 5.82422,-2.266114 2.1123,0 3.81445,0.840821 1.70215,0.830566 2.78906,2.33789 z"
             style=""
             id="path3439" /><path
             d="m 312.54352,-15.083496 1.74316,0 3.85547,6.2138671 3.79395,-6.2138671 1.74316,0 -4.77832,7.8749999 0,7.2084961 -1.48682,0 0,-7.2084961 -4.8706,-7.8749999 z"
             style=""
             id="path3441" /></g><g
           transform="matrix(0.99999,0,0,-1,199.384,63.2875)"
           style="font-variant:normal;font-weight:normal;font-size:50px;font-family:'Century Gothic';-inkscape-font-specification:CenturyGothic;writing-mode:lr-tb;fill:#5a5758;fill-opacity:1;fill-rule:nonzero;stroke:none"
           id="text26"><path
             d="m 29.589844,-21.044922 -2.709961,1.68457 q -3.515625,-4.663085 -9.594727,-4.663085 -4.858398,0 -8.0810544,3.125 -3.1982422,3.125 -3.1982422,7.592773 0,2.905273 1.4648437,5.4687499 1.4892578,2.5634766 4.0527349,3.9794922 2.58789,1.4160156 5.786132,1.4160156 5.859375,0 9.570313,-4.6630859 l 2.709961,1.7822266 q -1.904297,2.8564453 -5.126953,4.44335935 -3.198243,1.5625 -7.299805,1.5625 -6.298828,0 -10.4492188,-4.00390625 -4.1503906,-4.0039062 -4.1503906,-9.7412105 0,-3.857422 1.9287109,-7.153321 1.953125,-3.320312 5.3466797,-5.175781 3.3935548,-1.855469 7.5927738,-1.855469 2.636718,0 5.078125,0.805664 2.46582,0.805664 4.174804,2.09961 1.708985,1.293945 2.905274,3.295898 z"
             style=""
             id="path3444" /><path
             d="m 69.019196,-26.5625 3.49121,0 0,3.881836 q 1.5625,-2.294922 3.295899,-3.417969 1.733398,-1.147461 3.613281,-1.147461 1.416016,0 3.027344,0.903321 l -1.782227,2.880859 q -1.074218,-0.463867 -1.80664,-0.463867 -1.708985,0 -3.295899,1.416015 -1.586914,1.391602 -2.416992,4.345704 -0.634766,2.270507 -0.634766,9.179687 l 0,8.984375 -3.49121,0 0,-26.5625 z"
             style=""
             id="path3446" /><path
             d="m 107.71568,-8.8134766 2.88086,1.5136719 q -1.41601,2.7832031 -3.27148,4.4921875 -1.85547,1.7089844 -4.17481,2.6123047 -2.31933,0.87890625 -5.24902,0.87890625 -6.494141,0 -10.15625,-4.24804685 -3.66211,-4.272461 -3.66211,-9.6435549 0,-5.053711 3.100586,-9.008789 3.930664,-5.029297 10.522461,-5.029297 6.787113,0 10.839843,5.151367 2.88086,3.637696 2.92969,9.082032 l -23.876955,0 q 0.09766,4.6386716 2.954102,7.6171872 2.856445,2.9541015 7.055664,2.9541015 2.026367,0 3.930669,-0.7080078 1.92871,-0.7080078 3.27148,-1.8798828 1.34277,-1.171875 2.90527,-3.7841797 z m 0,-7.1533204 q -0.68359,-2.734375 -2.00195,-4.370117 -1.29395,-1.635742 -3.44238,-2.636719 -2.14844,-1.000976 -4.516605,-1.000976 -3.90625,0 -6.713867,2.514648 -2.050781,1.831055 -3.100586,5.493164 l 19.775388,0 z"
             style=""
             id="path3448" /></g></g><path
         d="m 2513.83,800.82 c 2.2,-7.129 31.23,-31.906 31.04,-99.812 41.18,42.281 106.13,102.906 109.54,143.211 -1.58,44.129 -25.88,74.617 -60.17,74.59 -41.76,-0.02 -87.7,-29.618 -111.54,-84.86 11.04,-9.254 21.57,-20.207 31.13,-33.129"
         style="fill:#80d6f7;fill-opacity:1;fill-rule:nonzero;stroke:none"
         id="path30"
         inkscape:connector-curvature="0" /><path
         d="m 2511.52,658.926 c -66.81,107.656 -32.85,156.328 -32.74,165.293 1.22,3.34 2.56,6.562 3.92,9.73 -39.63,33.207 -86.48,43.219 -123.79,32.203 -37.09,-10.937 -53.58,-51.64 -41.2,-99.824 23.89,-61.308 200,-127.422 213.58,-154.57 9.88,35.961 13.51,65.242 13.58,89.25 -18.28,-18.77 -31.89,-33.934 -33.35,-42.082"
         style="fill:#b8e8fb;fill-opacity:1;fill-rule:nonzero;stroke:none"
         id="path32"
         inkscape:connector-curvature="0" /><path
         d="m 2511.52,658.926 c -33.08,53.301 -41.46,92.144 -41.47,118.867 -0.01,27.25 8.67,41.898 8.73,46.426 1.22,3.34 2.56,6.562 3.92,9.73 11.04,-9.254 21.57,-20.207 31.13,-33.129 2.2,-7.101 31,-31.711 31.04,-99.015 0,-0.266 0,-0.532 0,-0.797 l 0,0 c -18.28,-18.77 -31.89,-33.934 -33.35,-42.082"
         style="fill:#66cef5;fill-opacity:1;fill-rule:nonzero;stroke:none"
         id="path34"
         inkscape:connector-curvature="0" /><path
         d="m 2511.52,658.926 c 1.46,8.148 15.07,23.312 33.35,42.082 0.19,67.906 -28.83,92.683 -31.04,99.812 -9.56,12.922 -20.09,23.875 -31.12,33.129 -1.37,-3.168 -2.71,-6.39 -3.93,-9.73 -0.11,-8.965 -34.07,-57.637 32.74,-165.293"
         style="fill:#33bdf2;fill-opacity:1;fill-rule:nonzero;stroke:none"
         id="path36"
         inkscape:connector-curvature="0" /></g></g></svg>