<svg xmlns="http://www.w3.org/2000/svg" viewBox="0 0 610.2 137.32"><defs><style>.cls-1{isolation:isolate;}.cls-2{fill:#636566;}.cls-3,.cls-5{fill:#70cff6;}.cls-3,.cls-4{mix-blend-mode:multiply;}.cls-4{fill:#b3e3f9;}</style></defs><title>compassionatecare</title><g class="cls-1"><g id="Layer_1" data-name="Layer 1"><g id="Care"><path class="cls-2" d="M258.37,126.11c-4.28,6.5-11.68,9.87-20.48,9.87-14.39,0-24-10.36-24-22.54,0-12.83,10-23.36,24.43-23.36,8.39,0,16,3.45,20.07,10.2l-4.52,2.8c-3.87-5.1-9.21-7.57-15.79-7.57-11.1,0-18.42,8.14-18.42,17.52,0,9.54,7.24,17.85,18.51,17.85a19.35,19.35,0,0,0,15.71-7.65Z"/><path class="cls-2" d="M329,97.57c3.29-4.77,6.83-7.48,11.27-7.48a8.84,8.84,0,0,1,5,1.48l-3,4.77a6.69,6.69,0,0,0-3-.82c-4.11,0-7.81,3.54-9.46,9.54-.74,2.8-.9,7.32-.9,13.24v16.61H323.1V91.24H329Z"/><path class="cls-2" d="M353.45,113.52c.25,10,7.07,17.35,16.45,17.35,9.13,0,13.49-5.18,16.7-10.44l4.69,2.47C386.84,131.62,380,136,370.48,136c-14.48,0-22.78-11.1-22.78-22.78,0-11.93,8.8-23.11,22.45-23.11,12.42,0,22.45,9,22.62,23.44Zm33.15-4.93c-2.3-9-8.8-13.08-16.37-13.08-7.81,0-13.65,4.19-16.2,13.08Z"/><path class="cls-3" d="M295.3,129.32s-16.42-23.54,4.15-38.93c16.11-12.06,24.7,9,15.91,16.9C299.82,121.25,295.3,129.32,295.3,129.32Z"/><path class="cls-4" d="M299.15,137.32s8.25-24.64-8.3-36.76c-18.08-13.24-26.19-.79-26.19-.79s-5.83,10.57,3.56,17.59C275.29,122.64,290.85,130.7,299.15,137.32Z"/></g><g id="Compassionate"><path class="cls-5" d="M44.33,53.71c-4.69,6.09-11.27,9.13-19.82,9.13C9.62,62.84,0,52.72,0,40,0,26.89,10.2,16.86,24.67,16.86c8.55,0,15.79,3.54,20.15,10l-9.13,5c-3.13-3.29-6.17-4.94-10.94-4.94C16.37,26.89,11,32.57,11,40.14c0,7.4,5.18,12.67,13.24,12.67,4.85,0,8.72-1.64,11.43-5Z"/><path class="cls-5" d="M98.45,39.81A22.91,22.91,0,1,1,75.26,16.86,22.75,22.75,0,0,1,98.45,39.81Zm-34.79,0c0,7.4,4.69,12.67,11.76,12.67,6.74,0,12-4.94,12-12.58,0-7.4-4.85-12.67-12-12.67C68.6,27.22,63.66,32.57,63.66,39.81Z"/><path class="cls-5" d="M146.32,61.69H135.38V40.55c0-8.47-1.64-13.65-7.73-13.65-5.43,0-9.38,4.44-9.38,13.41V61.69H107.34V18h10.94v5a18.27,18.27,0,0,1,13.65-6.17,13.72,13.72,0,0,1,12.75,7.81c4-5.1,8.06-7.81,14.64-7.81,4.85,0,9.21,2,11.68,5.1,2.88,3.62,3.21,8.39,3.21,14.15V61.69H163.26V37.59c0-7.16-2.55-10.69-7.48-10.69-5.51,0-9.46,4.28-9.46,13.24Z"/><path class="cls-5" d="M195.59,22.78a18.76,18.76,0,0,1,13.74-5.92c11.27,0,20.64,9.38,20.64,23,0,13.41-9.79,22.95-20.89,22.95-5.51,0-9.54-2-13.49-5.76V77.64H184.65V18h10.94Zm-.49,16.94c0,7.9,5.26,13.08,12,13.08s11.84-5.51,11.84-13c0-7.16-4.61-12.91-11.84-12.91C200.11,26.89,195.09,32.08,195.09,39.73Z"/><path class="cls-5" d="M271.26,57.08c-3.87,3.78-8,5.76-13.49,5.76-11.1,0-20.81-9.54-20.81-22.95,0-13.65,9.21-23,20.56-23a18.76,18.76,0,0,1,13.74,5.92V18h10.94V61.69H271.26ZM248,39.81c0,7.48,4.93,13,11.76,13s12-5.1,12-13.08c0-7.65-5.1-12.83-12-12.83C252.5,26.89,248,32.65,248,39.81Z"/><path class="cls-5" d="M301.93,42.77c-7-3.54-10.53-7.81-10.53-13.32,0-6.83,5.76-12.58,14.15-12.58a17.77,17.77,0,0,1,14.39,7.24l-6.74,6.83c-2.47-2.47-4.94-4-7.57-4-2.22,0-3.95.9-3.95,2.63s1.56,2.39,3.95,3.62l4,2.06c7.24,3.7,11.1,7.48,11.1,14,0,7.81-6.17,13.65-15.71,13.65a18.45,18.45,0,0,1-15.3-7.48l6.74-7.4c2.55,3,6.25,5.1,9.13,5.1,2.71,0,4.85-1.56,4.85-3.54s-1.81-3.29-4.85-4.85Z"/><path class="cls-5" d="M338.12,42.77c-7-3.54-10.53-7.81-10.53-13.32,0-6.83,5.76-12.58,14.15-12.58a17.77,17.77,0,0,1,14.39,7.24l-6.74,6.83c-2.47-2.47-4.94-4-7.57-4-2.22,0-3.95.9-3.95,2.63s1.56,2.39,3.95,3.62l4,2.06c7.24,3.7,11.1,7.48,11.1,14,0,7.81-6.17,13.65-15.71,13.65A18.45,18.45,0,0,1,326,55.35l6.74-7.4c2.55,3,6.25,5.1,9.13,5.1,2.71,0,4.85-1.56,4.85-3.54s-1.81-3.29-4.85-4.85Z"/><path class="cls-5" d="M376.94,7.24a7,7,0,0,1-7,7c-4,0-7-3.54-7-7.57A6.81,6.81,0,0,1,370,0,7.09,7.09,0,0,1,376.94,7.24ZM364.52,18h10.94V61.69H364.52Z"/><path class="cls-5" d="M429.09,39.81A22.91,22.91,0,1,1,405.9,16.86,22.75,22.75,0,0,1,429.09,39.81Zm-34.79,0c0,7.4,4.69,12.67,11.76,12.67,6.74,0,12-4.94,12-12.58,0-7.4-4.85-12.67-12-12.67C399.23,27.22,394.3,32.57,394.3,39.81Z"/><path class="cls-5" d="M448.91,22.45c4.19-3.54,8.06-5.59,12.91-5.59,8.14,0,15,5.59,15,15V61.69H465.85V41c0-8.64-.74-14.15-7.4-14.15a8.58,8.58,0,0,0-7.4,4.19c-2.22,3.54-2.14,7.48-2.14,12V61.69H438V18h10.94Z"/><path class="cls-5" d="M519.64,57.08c-3.87,3.78-8,5.76-13.49,5.76-11.1,0-20.81-9.54-20.81-22.95,0-13.65,9.21-23,20.56-23a18.76,18.76,0,0,1,13.74,5.92V18h10.94V61.69H519.64ZM496.37,39.81c0,7.48,4.94,13,11.76,13s12-5.1,12-13.08c0-7.65-5.1-12.83-12-12.83C500.89,26.89,496.37,32.65,496.37,39.81Z"/><path class="cls-5" d="M542.92,1.89h10.94V18h6.5v9.38h-6.5v34.3H542.92V27.39h-5.59V18h5.59Z"/><path class="cls-5" d="M607.24,53.21c-4.69,6.66-10.86,9.62-20.07,9.62-13.9,0-22.86-10.2-22.86-23,0-11.93,8.64-22.95,22.7-22.95,13.82,0,23.19,9.87,23.19,23.69,0,1-.08,1.48-.08,2.47h-35.2c1.07,6.5,6,10.12,12.25,10.12A14.14,14.14,0,0,0,598,48.85Zm-8.06-18.83c-1.48-5.1-6.17-8.22-12-8.22-5.43,0-9.62,2.71-11.76,8.22Z"/></g></g></g></svg>