<svg xmlns="http://www.w3.org/2000/svg" viewBox="0 0 610.2 183.37"><defs><style>.cls-1{isolation:isolate;}.cls-2{fill:#636566;}.cls-3,.cls-5{fill:#70cff6;}.cls-3,.cls-4{mix-blend-mode:multiply;}.cls-4{fill:#b3e3f9;}</style></defs><title>compassionate-hospice</title><g class="cls-1"><g id="Layer_1" data-name="Layer 1"><g id="Hospice_Text" data-name="Hospice Text"><path class="cls-2" d="M52.89,182.74V159h2.24v10.2H69.19V159h2.24v23.76H69.19V171.09H55.13v11.65Z"/><path class="cls-2" d="M75.83,170.89a16.33,16.33,0,0,1,.71-4.88,11.73,11.73,0,0,1,2.1-4,10,10,0,0,1,3.43-2.69,10.72,10.72,0,0,1,4.72-1,11.43,11.43,0,0,1,4.87,1,9.83,9.83,0,0,1,3.5,2.67,11.57,11.57,0,0,1,2.11,4,16.51,16.51,0,0,1,.71,4.9,16.06,16.06,0,0,1-.71,4.83,11.76,11.76,0,0,1-2.1,4,9.88,9.88,0,0,1-3.46,2.69,12.22,12.22,0,0,1-9.64,0,9.88,9.88,0,0,1-3.46-2.69,11.54,11.54,0,0,1-2.08-4A16.41,16.41,0,0,1,75.83,170.89Zm11.09,10.56a8.46,8.46,0,0,0,4-.87,7.93,7.93,0,0,0,2.74-2.33,9.93,9.93,0,0,0,1.58-3.37,15.41,15.41,0,0,0,.51-4,14.94,14.94,0,0,0-.61-4.44,9.63,9.63,0,0,0-1.77-3.35A7.59,7.59,0,0,0,90.54,161a9.09,9.09,0,0,0-3.7-.73,8.25,8.25,0,0,0-3.94.89,8,8,0,0,0-2.74,2.36,10.1,10.1,0,0,0-1.58,3.38,16,16,0,0,0,0,8,9.9,9.9,0,0,0,1.58,3.37,7.77,7.77,0,0,0,2.74,2.31A8.66,8.66,0,0,0,86.91,181.45Z"/><path class="cls-2" d="M103.35,175.64a7,7,0,0,0,.71,2.69,5.3,5.3,0,0,0,1.48,1.8,5.87,5.87,0,0,0,2.1,1,9.93,9.93,0,0,0,2.54.31,8.47,8.47,0,0,0,2.74-.4A5.2,5.2,0,0,0,114.8,180a4.18,4.18,0,0,0,1.07-1.57,5.11,5.11,0,0,0,.35-1.88,3.72,3.72,0,0,0-.63-2.24,4.84,4.84,0,0,0-1.63-1.4,9.94,9.94,0,0,0-2.31-.87q-1.3-.33-2.67-.64t-2.67-.74a8.39,8.39,0,0,1-2.31-1.15,5.57,5.57,0,0,1-1.63-1.87,5.94,5.94,0,0,1-.63-2.89,5.8,5.8,0,0,1,.51-2.38,5.92,5.92,0,0,1,1.52-2,7.46,7.46,0,0,1,2.52-1.42,10.64,10.64,0,0,1,3.5-.53,10,10,0,0,1,3.52.56,7,7,0,0,1,2.49,1.54,6.32,6.32,0,0,1,1.49,2.26,7.61,7.61,0,0,1,.49,2.74h-2.14a5.34,5.34,0,0,0-.48-2.34,4.4,4.4,0,0,0-1.3-1.62,5.55,5.55,0,0,0-1.88-.92,8,8,0,0,0-2.18-.3,7.65,7.65,0,0,0-2.89.48A5.07,5.07,0,0,0,105,162a4.18,4.18,0,0,0-1,1.68,4,4,0,0,0-.1,1.85,3.22,3.22,0,0,0,.92,1.85,5.82,5.82,0,0,0,1.78,1.14,13.38,13.38,0,0,0,2.33.73l2.59.59q1.32.31,2.56.74a7.86,7.86,0,0,1,2.19,1.15,5.32,5.32,0,0,1,1.54,1.87,6.28,6.28,0,0,1,.58,2.85,6.17,6.17,0,0,1-2.28,5.11,10,10,0,0,1-6.4,1.82,11.84,11.84,0,0,1-3.43-.48,7.59,7.59,0,0,1-2.74-1.45,6.67,6.67,0,0,1-1.8-2.41,8.21,8.21,0,0,1-.64-3.38Z"/><path class="cls-2" d="M122.49,182.74V159h8.68a11.67,11.67,0,0,1,3.81.53,5.91,5.91,0,0,1,2.38,1.45,5.11,5.11,0,0,1,1.22,2.13,9.07,9.07,0,0,1,.35,2.52,6,6,0,0,1-.81,3.27,6,6,0,0,1-2.1,2,9,9,0,0,1-2.92,1,18.3,18.3,0,0,1-3.28.3h-5.08v10.49Zm7.39-12.41a18.21,18.21,0,0,0,2.84-.2,5.65,5.65,0,0,0,2.13-.74,3.67,3.67,0,0,0,1.35-1.49,5.43,5.43,0,0,0,.48-2.46,4.06,4.06,0,0,0-1.47-3.4,7.57,7.57,0,0,0-4.67-1.15h-5.81v9.44Z"/><path class="cls-2" d="M143.54,182.74V159h2.24v23.76Z"/><path class="cls-2" d="M168.79,165.88a6.8,6.8,0,0,0-2.57-4.32,8.54,8.54,0,0,0-4.92-1.29,7.22,7.22,0,0,0-6.25,3.17,10.18,10.18,0,0,0-1.48,3.35,16.32,16.32,0,0,0-.48,4,18.41,18.41,0,0,0,.41,3.89,10.34,10.34,0,0,0,1.37,3.42,7.25,7.25,0,0,0,2.57,2.43,8.09,8.09,0,0,0,4.06.92,7.48,7.48,0,0,0,2.77-.5,6.93,6.93,0,0,0,2.2-1.37,8,8,0,0,0,1.58-2.06,10.38,10.38,0,0,0,1-2.61h2.34a14.86,14.86,0,0,1-1.16,3.25,9.29,9.29,0,0,1-2,2.69,9.12,9.12,0,0,1-3,1.83,11.54,11.54,0,0,1-4.14.68,10.09,10.09,0,0,1-4.69-1,8.9,8.9,0,0,1-3.18-2.72,11.43,11.43,0,0,1-1.8-4,19.87,19.87,0,0,1-.56-4.8,17.39,17.39,0,0,1,.84-5.78,10.3,10.3,0,0,1,2.33-3.88,8.8,8.8,0,0,1,3.5-2.18,13.72,13.72,0,0,1,4.39-.68,11.52,11.52,0,0,1,3.38.48,8.33,8.33,0,0,1,2.77,1.44,7.8,7.8,0,0,1,2,2.36,9.92,9.92,0,0,1,1.07,3.25Z"/><path class="cls-2" d="M175.75,182.74V159h15.81v1.91H178v8.58h12.24v1.91H178v9.44h13.89v1.91Z"/><path class="cls-2" d="M221.95,165.88a6.8,6.8,0,0,0-2.57-4.32,8.54,8.54,0,0,0-4.92-1.29,7.22,7.22,0,0,0-6.25,3.17,10.18,10.18,0,0,0-1.48,3.35,16.32,16.32,0,0,0-.48,4,18.41,18.41,0,0,0,.41,3.89A10.34,10.34,0,0,0,208,178.1a7.25,7.25,0,0,0,2.57,2.43,8.09,8.09,0,0,0,4.06.92,7.48,7.48,0,0,0,2.77-.5,6.93,6.93,0,0,0,2.2-1.37,8,8,0,0,0,1.58-2.06,10.38,10.38,0,0,0,1-2.61h2.34a14.86,14.86,0,0,1-1.16,3.25,9.29,9.29,0,0,1-2,2.69,9.12,9.12,0,0,1-3,1.83,11.54,11.54,0,0,1-4.14.68,10.09,10.09,0,0,1-4.69-1,8.9,8.9,0,0,1-3.18-2.72,11.43,11.43,0,0,1-1.8-4,19.87,19.87,0,0,1-.56-4.8,17.39,17.39,0,0,1,.84-5.78,10.3,10.3,0,0,1,2.33-3.88,8.8,8.8,0,0,1,3.5-2.18,13.72,13.72,0,0,1,4.39-.68,11.52,11.52,0,0,1,3.38.48,8.33,8.33,0,0,1,2.77,1.44,7.8,7.8,0,0,1,2,2.36,9.92,9.92,0,0,1,1.07,3.25Z"/><path class="cls-2" d="M228.91,182.74V159h15.81v1.91H231.15v8.58H243.4v1.91H231.15v9.44H245v1.91Z"/><path class="cls-2" d="M251.32,162h-.07v20.72H249V159h2.54l13.73,20.76h.07V159h2.24v23.76H265Z"/><path class="cls-2" d="M270.75,159H288v1.91h-7.52v21.85h-2.24V160.89h-7.52Z"/><path class="cls-2" d="M293.46,171.95v10.79l-2.24,0V159h9.31a10.34,10.34,0,0,1,6,1.47,5.43,5.43,0,0,1,2.08,4.77,6.19,6.19,0,0,1-.91,3.56,6.92,6.92,0,0,1-3,2.24,3.7,3.7,0,0,1,1.65,1.06,4.7,4.7,0,0,1,.89,1.58,8.06,8.06,0,0,1,.38,1.88q.08,1,.12,1.91,0,1.35.12,2.24a13.62,13.62,0,0,0,.2,1.45,3.38,3.38,0,0,0,.28.87,1.33,1.33,0,0,0,.4.48v.2l-2.48,0a4.35,4.35,0,0,1-.51-1.65q-.15-1.05-.23-2.21t-.13-2.24a13,13,0,0,0-.18-1.78,3.73,3.73,0,0,0-.64-1.54,2.93,2.93,0,0,0-1.07-.87,4.63,4.63,0,0,0-1.4-.4,12.75,12.75,0,0,0-1.6-.1Zm7-1.91a9.73,9.73,0,0,0,2.33-.26,5.27,5.27,0,0,0,1.87-.84,4.16,4.16,0,0,0,1.25-1.47,4.61,4.61,0,0,0,.46-2.14,4.44,4.44,0,0,0-.48-2.18,3.63,3.63,0,0,0-1.29-1.35,5.48,5.48,0,0,0-1.85-.69,11.55,11.55,0,0,0-2.16-.2h-7.13V170Z"/><path class="cls-2" d="M311.08,182.74,320.42,159H323l9.11,23.76h-2.31L327,175.28H316.2l-2.81,7.46Zm5.87-9.37h9.31l-4.65-12.47Z"/><path class="cls-2" d="M335.27,182.74V159h2.24v21.85h12.74v1.91Z"/><path class="cls-2" d="M379.65,165.88a6.8,6.8,0,0,0-2.57-4.32,8.54,8.54,0,0,0-4.92-1.29,7.22,7.22,0,0,0-6.25,3.17,10.18,10.18,0,0,0-1.48,3.35,16.32,16.32,0,0,0-.48,4,18.41,18.41,0,0,0,.41,3.89,10.34,10.34,0,0,0,1.37,3.42,7.25,7.25,0,0,0,2.57,2.43,8.09,8.09,0,0,0,4.06.92,7.48,7.48,0,0,0,2.77-.5,6.93,6.93,0,0,0,2.2-1.37,8,8,0,0,0,1.58-2.06,10.38,10.38,0,0,0,1-2.61h2.34a14.86,14.86,0,0,1-1.16,3.25,9.29,9.29,0,0,1-2,2.69,9.12,9.12,0,0,1-3,1.83,11.54,11.54,0,0,1-4.14.68,10.09,10.09,0,0,1-4.69-1,8.9,8.9,0,0,1-3.18-2.72,11.43,11.43,0,0,1-1.8-4,19.87,19.87,0,0,1-.56-4.8,17.39,17.39,0,0,1,.84-5.78,10.3,10.3,0,0,1,2.33-3.88,8.8,8.8,0,0,1,3.5-2.18,13.72,13.72,0,0,1,4.39-.68,11.52,11.52,0,0,1,3.38.48,8.33,8.33,0,0,1,2.77,1.44,7.8,7.8,0,0,1,2,2.36,9.92,9.92,0,0,1,1.07,3.25Z"/><path class="cls-2" d="M384.44,182.74,393.78,159h2.54l9.11,23.76h-2.31l-2.74-7.46H389.55l-2.81,7.46Zm5.87-9.37h9.31L395,160.89Z"/><path class="cls-2" d="M408.63,182.74V159h2.24v21.85h12.74v1.91Z"/><path class="cls-2" d="M427.77,182.74V159H430v23.76Z"/><path class="cls-2" d="M435.92,182.74V159h15.31v1.91H438.16v8.58H450v1.91H438.16v11.35Z"/><path class="cls-2" d="M453.57,170.89a16.32,16.32,0,0,1,.71-4.88,11.74,11.74,0,0,1,2.09-4,10,10,0,0,1,3.43-2.69,10.72,10.72,0,0,1,4.72-1,11.44,11.44,0,0,1,4.87,1,9.83,9.83,0,0,1,3.5,2.67,11.58,11.58,0,0,1,2.11,4,16.51,16.51,0,0,1,.71,4.9,16.06,16.06,0,0,1-.71,4.83,11.77,11.77,0,0,1-2.1,4,9.88,9.88,0,0,1-3.46,2.69,12.22,12.22,0,0,1-9.64,0,9.87,9.87,0,0,1-3.46-2.69,11.52,11.52,0,0,1-2.08-4A16.41,16.41,0,0,1,453.57,170.89Zm11.09,10.56a8.45,8.45,0,0,0,4-.87,7.94,7.94,0,0,0,2.74-2.33,9.92,9.92,0,0,0,1.58-3.37,15.41,15.41,0,0,0,.51-4,14.92,14.92,0,0,0-.61-4.44,9.64,9.64,0,0,0-1.76-3.35,7.59,7.59,0,0,0-2.81-2.11,9.09,9.09,0,0,0-3.7-.73,8.25,8.25,0,0,0-3.94.89,8,8,0,0,0-2.74,2.36,10.08,10.08,0,0,0-1.58,3.38,16,16,0,0,0,0,8,9.88,9.88,0,0,0,1.58,3.37,7.76,7.76,0,0,0,2.74,2.31A8.66,8.66,0,0,0,464.66,181.45Z"/><path class="cls-2" d="M482.38,171.95v10.79l-2.24,0V159h9.31a10.34,10.34,0,0,1,6,1.47,5.43,5.43,0,0,1,2.08,4.77,6.19,6.19,0,0,1-.91,3.56,6.92,6.92,0,0,1-3,2.24,3.7,3.7,0,0,1,1.65,1.06,4.7,4.7,0,0,1,.89,1.58,8.06,8.06,0,0,1,.38,1.88q.08,1,.12,1.91,0,1.35.12,2.24a13.62,13.62,0,0,0,.2,1.45,3.38,3.38,0,0,0,.28.87,1.33,1.33,0,0,0,.4.48v.2l-2.48,0a4.35,4.35,0,0,1-.51-1.65q-.15-1.05-.23-2.21t-.13-2.24a13,13,0,0,0-.18-1.78,3.73,3.73,0,0,0-.64-1.54,2.93,2.93,0,0,0-1.07-.87,4.63,4.63,0,0,0-1.4-.4,12.75,12.75,0,0,0-1.6-.1Zm7-1.91a9.73,9.73,0,0,0,2.33-.26,5.27,5.27,0,0,0,1.87-.84,4.16,4.16,0,0,0,1.25-1.47,4.61,4.61,0,0,0,.46-2.14,4.44,4.44,0,0,0-.48-2.18,3.63,3.63,0,0,0-1.29-1.35,5.48,5.48,0,0,0-1.85-.69,11.55,11.55,0,0,0-2.16-.2h-7.13V170Z"/><path class="cls-2" d="M504.43,162h-.07v20.72h-2.24V159h2.54l13.73,20.76h.07V159h2.24v23.76h-2.61Z"/><path class="cls-2" d="M526.8,182.74V159H529v23.76Z"/><path class="cls-2" d="M533,182.74,542.34,159h2.54L554,182.74h-2.31l-2.74-7.46H538.12l-2.81,7.46Zm5.87-9.37h9.31l-4.65-12.47Z"/></g><g id="Care"><path class="cls-2" d="M258.37,126.11c-4.28,6.5-11.68,9.87-20.48,9.87-14.39,0-24-10.36-24-22.54,0-12.83,10-23.36,24.43-23.36,8.39,0,16,3.45,20.07,10.2l-4.52,2.8c-3.87-5.1-9.21-7.57-15.79-7.57-11.1,0-18.42,8.14-18.42,17.52,0,9.54,7.24,17.85,18.51,17.85a19.35,19.35,0,0,0,15.71-7.65Z"/><path class="cls-2" d="M329,97.57c3.29-4.77,6.83-7.48,11.27-7.48a8.84,8.84,0,0,1,5,1.48l-3,4.77a6.69,6.69,0,0,0-3-.82c-4.11,0-7.81,3.54-9.46,9.54-.74,2.8-.9,7.32-.9,13.24v16.61H323.1V91.24H329Z"/><path class="cls-2" d="M353.45,113.52c.25,10,7.07,17.35,16.45,17.35,9.13,0,13.49-5.18,16.7-10.44l4.69,2.47C386.84,131.62,380,136,370.48,136c-14.48,0-22.78-11.1-22.78-22.78,0-11.93,8.8-23.11,22.45-23.11,12.42,0,22.45,9,22.62,23.44Zm33.15-4.93c-2.3-9-8.8-13.08-16.37-13.08-7.81,0-13.65,4.19-16.2,13.08Z"/><path class="cls-3" d="M295.3,129.32s-16.42-23.54,4.15-38.93c16.11-12.06,24.7,9,15.91,16.9C299.82,121.25,295.3,129.32,295.3,129.32Z"/><path class="cls-4" d="M299.15,137.32s8.25-24.64-8.3-36.76c-18.08-13.24-26.19-.79-26.19-.79s-5.83,10.57,3.56,17.59C275.29,122.64,290.85,130.7,299.15,137.32Z"/></g><g id="Compassionate"><path class="cls-5" d="M44.33,53.71c-4.69,6.09-11.27,9.13-19.82,9.13C9.62,62.84,0,52.72,0,40,0,26.89,10.2,16.86,24.67,16.86c8.55,0,15.79,3.54,20.15,10l-9.13,5c-3.13-3.29-6.17-4.94-10.94-4.94C16.37,26.89,11,32.57,11,40.14c0,7.4,5.18,12.67,13.24,12.67,4.85,0,8.72-1.64,11.43-5Z"/><path class="cls-5" d="M98.45,39.81A22.91,22.91,0,1,1,75.26,16.86,22.75,22.75,0,0,1,98.45,39.81Zm-34.79,0c0,7.4,4.69,12.67,11.76,12.67,6.74,0,12-4.94,12-12.58,0-7.4-4.85-12.67-12-12.67C68.6,27.22,63.66,32.57,63.66,39.81Z"/><path class="cls-5" d="M146.32,61.69H135.38V40.55c0-8.47-1.64-13.65-7.73-13.65-5.43,0-9.38,4.44-9.38,13.41V61.69H107.34V18h10.94v5a18.27,18.27,0,0,1,13.65-6.17,13.72,13.72,0,0,1,12.75,7.81c4-5.1,8.06-7.81,14.64-7.81,4.85,0,9.21,2,11.68,5.1,2.88,3.62,3.21,8.39,3.21,14.15V61.69H163.26V37.59c0-7.16-2.55-10.69-7.48-10.69-5.51,0-9.46,4.28-9.46,13.24Z"/><path class="cls-5" d="M195.59,22.78a18.76,18.76,0,0,1,13.74-5.92c11.27,0,20.64,9.38,20.64,23,0,13.41-9.79,22.95-20.89,22.95-5.51,0-9.54-2-13.49-5.76V77.64H184.65V18h10.94Zm-.49,16.94c0,7.9,5.26,13.08,12,13.08s11.84-5.51,11.84-13c0-7.16-4.61-12.91-11.84-12.91C200.11,26.89,195.09,32.08,195.09,39.73Z"/><path class="cls-5" d="M271.26,57.08c-3.87,3.78-8,5.76-13.49,5.76-11.1,0-20.81-9.54-20.81-22.95,0-13.65,9.21-23,20.56-23a18.76,18.76,0,0,1,13.74,5.92V18h10.94V61.69H271.26ZM248,39.81c0,7.48,4.93,13,11.76,13s12-5.1,12-13.08c0-7.65-5.1-12.83-12-12.83C252.5,26.89,248,32.65,248,39.81Z"/><path class="cls-5" d="M301.93,42.77c-7-3.54-10.53-7.81-10.53-13.32,0-6.83,5.76-12.58,14.15-12.58a17.77,17.77,0,0,1,14.39,7.24l-6.74,6.83c-2.47-2.47-4.94-4-7.57-4-2.22,0-3.95.9-3.95,2.63s1.56,2.39,3.95,3.62l4,2.06c7.24,3.7,11.1,7.48,11.1,14,0,7.81-6.17,13.65-15.71,13.65a18.45,18.45,0,0,1-15.3-7.48l6.74-7.4c2.55,3,6.25,5.1,9.13,5.1,2.71,0,4.85-1.56,4.85-3.54s-1.81-3.29-4.85-4.85Z"/><path class="cls-5" d="M338.12,42.77c-7-3.54-10.53-7.81-10.53-13.32,0-6.83,5.76-12.58,14.15-12.58a17.77,17.77,0,0,1,14.39,7.24l-6.74,6.83c-2.47-2.47-4.94-4-7.57-4-2.22,0-3.95.9-3.95,2.63s1.56,2.39,3.95,3.62l4,2.06c7.24,3.7,11.1,7.48,11.1,14,0,7.81-6.17,13.65-15.71,13.65A18.45,18.45,0,0,1,326,55.35l6.74-7.4c2.55,3,6.25,5.1,9.13,5.1,2.71,0,4.85-1.56,4.85-3.54s-1.81-3.29-4.85-4.85Z"/><path class="cls-5" d="M376.94,7.24a7,7,0,0,1-7,7c-4,0-7-3.54-7-7.57A6.81,6.81,0,0,1,370,0,7.09,7.09,0,0,1,376.94,7.24ZM364.52,18h10.94V61.69H364.52Z"/><path class="cls-5" d="M429.09,39.81A22.91,22.91,0,1,1,405.9,16.86,22.75,22.75,0,0,1,429.09,39.81Zm-34.79,0c0,7.4,4.69,12.67,11.76,12.67,6.74,0,12-4.94,12-12.58,0-7.4-4.85-12.67-12-12.67C399.23,27.22,394.3,32.57,394.3,39.81Z"/><path class="cls-5" d="M448.91,22.45c4.19-3.54,8.06-5.59,12.91-5.59,8.14,0,15,5.59,15,15V61.69H465.85V41c0-8.64-.74-14.15-7.4-14.15a8.58,8.58,0,0,0-7.4,4.19c-2.22,3.54-2.14,7.48-2.14,12V61.69H438V18h10.94Z"/><path class="cls-5" d="M519.64,57.08c-3.87,3.78-8,5.76-13.49,5.76-11.1,0-20.81-9.54-20.81-22.95,0-13.65,9.21-23,20.56-23a18.76,18.76,0,0,1,13.74,5.92V18h10.94V61.69H519.64ZM496.37,39.81c0,7.48,4.94,13,11.76,13s12-5.1,12-13.08c0-7.65-5.1-12.83-12-12.83C500.89,26.89,496.37,32.65,496.37,39.81Z"/><path class="cls-5" d="M542.92,1.89h10.94V18h6.5v9.38h-6.5v34.3H542.92V27.39h-5.59V18h5.59Z"/><path class="cls-5" d="M607.24,53.21c-4.69,6.66-10.86,9.62-20.07,9.62-13.9,0-22.86-10.2-22.86-23,0-11.93,8.64-22.95,22.7-22.95,13.82,0,23.19,9.87,23.19,23.69,0,1-.08,1.48-.08,2.47h-35.2c1.07,6.5,6,10.12,12.25,10.12A14.14,14.14,0,0,0,598,48.85Zm-8.06-18.83c-1.48-5.1-6.17-8.22-12-8.22-5.43,0-9.62,2.71-11.76,8.22Z"/></g></g></g></svg>